<svg xmlns="http://www.w3.org/2000/svg" x="0px" y="0px"
width="24" height="24"
viewBox="0 0 172 172"
style=" fill:#000000;"><g fill="none" fill-rule="nonzero" stroke="none" stroke-width="1" stroke-linecap="butt" stroke-linejoin="miter" stroke-miterlimit="10" stroke-dasharray="" stroke-dashoffset="0" font-family="none" font-weight="none" font-size="none" text-anchor="none" style="mix-blend-mode: normal"><path d="M0,172v-172h172v172z" fill="none"></path><g fill="#ffffff"><path d="M50.16667,7.16667c-3.956,0 -7.16667,3.21067 -7.16667,7.16667v7.16667h-7.16667c-7.88333,0 -14.33333,6.45 -14.33333,14.33333v100.33333c0,7.88333 6.45,14.33333 14.33333,14.33333h100.33333c7.88333,0 14.33333,-6.45 14.33333,-14.33333v-100.33333c0,-7.88333 -6.45,-14.33333 -14.33333,-14.33333h-7.16667v-7.16667c0,-3.956 -3.21067,-7.16667 -7.16667,-7.16667c-3.956,0 -7.16667,3.21067 -7.16667,7.16667v7.16667h-57.33333v-7.16667c0,-3.956 -3.21067,-7.16667 -7.16667,-7.16667zM35.83333,57.33333h100.33333v71.66667c0,3.956 -3.21067,7.16667 -7.16667,7.16667h-86c-3.956,0 -7.16667,-3.21067 -7.16667,-7.16667z"></path></g></g></svg>