<svg xmlns="http://www.w3.org/2000/svg" x="0px" y="0px"
width="32" height="32"
viewBox="0 0 172 172"
style=" fill:#000000;"><g fill="none" fill-rule="nonzero" stroke="none" stroke-width="1" stroke-linecap="butt" stroke-linejoin="miter" stroke-miterlimit="10" stroke-dasharray="" stroke-dashoffset="0" font-family="none" font-weight="none" font-size="none" text-anchor="none" style="mix-blend-mode: normal"><path d="M0,172v-172h172v172z" fill="none"></path><g fill="#ffffff"><path d="M48.375,26.875c-8.83935,0 -16.125,7.28565 -16.125,16.125c0,8.83935 7.28565,16.125 16.125,16.125c8.83935,0 16.125,-7.28565 16.125,-16.125c0,-8.83935 -7.28565,-16.125 -16.125,-16.125zM118.25,26.875c-8.83935,0 -16.125,7.28565 -16.125,16.125c0,8.83935 7.28565,16.125 16.125,16.125c8.83935,0 16.125,-7.28565 16.125,-16.125c0,-8.83935 -7.28565,-16.125 -16.125,-16.125zM145.29297,30.90625l-5.03906,19.98828l-13.60547,13.60547h-19.14844c-2.30957,0 -3.56933,0.81885 -4.70312,1.51172c-1.13379,0.69287 -2.03662,1.46973 -3.02344,2.35156c-1.99463,1.76367 -4.03125,3.94727 -5.87891,6.04688c-3.69531,4.22021 -6.88672,8.39844 -6.88672,8.39844l-0.50391,0.83984l-0.33594,1.00781l-5.375,21.5l10.41406,2.6875l5.03906,-20.32422c0.44092,-0.58789 2.62451,-3.52734 5.71094,-7.05469c1.67969,-1.93164 3.46435,-3.7793 4.87109,-5.03906c0.27295,-0.25195 0.44092,-0.31494 0.67188,-0.50391v26.20313l-7.05469,16.125l-3.69531,26.875h10.75l3.19141,-25.36328l7.55859,-17.63672v-26.875h5.375v26.875l7.55859,17.63672l3.19141,25.36328h10.75l-3.69531,-26.875l-7.05469,-16.125v-29.89844l14.61328,-14.61328l1.00781,-1.17578l5.71094,-22.84375zM16.125,32.25v23.68359l1.51172,1.67969l16.125,16.125l1.34375,1.17578c-3.35937,8.02051 -8.23047,20.4082 -8.23047,27.21094c0,7.09668 3.69531,31.47315 5.20703,43h10.91797c-1.72168,-13.01758 -5.375,-36.82715 -5.375,-43c0,-5.03906 4.99707,-17.99365 8.90234,-26.875h4.53516l-7.72656,19.48438c-0.69287,1.74268 -0.46191,3.71631 0.67188,5.20703l14.78125,19.65234l-5.03906,25.53125h10.75l5.375,-26.03516c0.25195,-1.44873 -0.12597,-2.85547 -1.00781,-4.03125l-14.44531,-19.14844l9.23828,-22.84375l15.45313,-15.45312l1.51172,-1.67969v-23.68359h-10.75v19.14844l-13.10156,13.10156h-16.79687l-13.10156,-13.10156v-19.14844zM48.375,37.625c3.02344,0 5.375,2.35156 5.375,5.375c0,3.02344 -2.35156,5.375 -5.375,5.375c-3.02344,0 -5.375,-2.35156 -5.375,-5.375c0,-3.02344 2.35156,-5.375 5.375,-5.375zM118.25,37.625c3.02344,0 5.375,2.35156 5.375,5.375c0,3.02344 -2.35156,5.375 -5.375,5.375c-3.02344,0 -5.375,-2.35156 -5.375,-5.375c0,-3.02344 2.35156,-5.375 5.375,-5.375z"></path></g></g></svg>