<svg xmlns="http://www.w3.org/2000/svg" x="0px" y="0px"
width="24" height="24"
viewBox="0 0 172 172"
style=" fill:#000000;"><g fill="none" fill-rule="nonzero" stroke="none" stroke-width="1" stroke-linecap="butt" stroke-linejoin="miter" stroke-miterlimit="10" stroke-dasharray="" stroke-dashoffset="0" font-family="none" font-weight="none" font-size="none" text-anchor="none" style="mix-blend-mode: normal"><path d="M0,172v-172h172v172z" fill="none"></path><g fill="#ffffff"><path d="M121.83333,7.16667h-71.66667c-7.91917,0 -14.33333,6.41417 -14.33333,14.33333v129c0,7.91917 6.41417,14.33333 14.33333,14.33333h71.66667c7.91917,0 14.33333,-6.41417 14.33333,-14.33333v-129c0,-7.91917 -6.41417,-14.33333 -14.33333,-14.33333zM96.75,150.5h-21.5c-1.978,0 -3.58333,-1.60533 -3.58333,-3.58333v0c0,-1.978 1.60533,-3.58333 3.58333,-3.58333h21.5c1.978,0 3.58333,1.60533 3.58333,3.58333v0c0,1.978 -1.60533,3.58333 -3.58333,3.58333zM117.05317,129h-62.10633c-2.6445,0 -4.78017,-2.13567 -4.78017,-4.78017v-90.773c0,-2.6445 2.13567,-4.78017 4.78017,-4.78017h62.1135c2.63733,0 4.773,2.13567 4.773,4.78017v90.78017c0,2.63733 -2.13567,4.773 -4.78017,4.773z"></path></g></g></svg>